PathFileType	4	(X/Y/Z)	/Users/itak/Documents/Research/Walk-IL/dataset/trc/00142_00007.trc
DataRate	CameraRate	NumFrames	NumMarkers	Units	OrigDataRate	OrigDataStartFrame	OrigNumFrames
100.000000	100.000000	4	53	mm	100.000000	135	540
Frame#	Time	RPSI			LPSI			L3			STRN			T10			C7			CLAV			RBAK			LBAK			LSHO			LUPA			LAEL			LAOL			LWTS			LWPS			LFRA			LIFD			LHPS			LHTS			RSHO			RUPA			RAEL			RAOL			RWTS			RWPS			RFRA			RIFD			RHTS			RHPS			RBHD			LFHD			RFHD			LBHD			LHIP			RHIP			RASI			LASI			LKNE			LTHI			LANK			LTIP			LTOE			LMT1			LMT5			LHEE			RKNE			RTHI			RANK			RTIP			RTOE			RMT1			RMT5			RHEE			
		X1	Y1	Z1	X2	Y2	Z2	X3	Y3	Z3	X4	Y4	Z4	X5	Y5	Z5	X6	Y6	Z6	X7	Y7	Z7	X8	Y8	Z8	X9	Y9	Z9	X10	Y10	Z10	X11	Y11	Z11	X12	Y12	Z12	X13	Y13	Z13	X14	Y14	Z14	X15	Y15	Z15	X16	Y16	Z16	X17	Y17	Z17	X18	Y18	Z18	X19	Y19	Z19	X20	Y20	Z20	X21	Y21	Z21	X22	Y22	Z22	X23	Y23	Z23	X24	Y24	Z24	X25	Y25	Z25	X26	Y26	Z26	X27	Y27	Z27	X28	Y28	Z28	X29	Y29	Z29	X30	Y30	Z30	X31	Y31	Z31	X32	Y32	Z32	X33	Y33	Z33	X34	Y34	Z34	X35	Y35	Z35	X36	Y36	Z36	X37	Y37	Z37	X38	Y38	Z38	X39	Y39	Z39	X40	Y40	Z40	X41	Y41	Z41	X42	Y42	Z42	X43	Y43	Z43	X44	Y44	Z44	X45	Y45	Z45	X46	Y46	Z46	X47	Y47	Z47	X48	Y48	Z48	X49	Y49	Z49	X50	Y50	Z50	X51	Y51	Z51	X52	Y52	Z52	X53	Y53	Z53	

136	1.35	-859.1505737304688	1128.360717773438	1229.647094726562	-859.0821533203125	1128.472778320312	1094.040405273438	-865.53662109375	1160.84521484375	1159.119873046875	-652.7816772460938	1361.166625976562	1157.28955078125	-907.134033203125	1311.480712890625	1157.354614257812	-875.2015991210938	1603.3603515625	1146.101196289062	-690.7791748046875	1495.772338867188	1153.306030273438	-926.18115234375	1419.089477539062	1232.070068359375	-881.9397583007812	1584.018920898438	1043.59619140625	-794.7550048828125	1569.8369140625	975.1953125	-813.3565673828125	1438.836059570312	902.9337768554688	-791.0894775390625	1219.838256835938	878.59521484375	-858.2560424804688	1205.806640625	935.5330810546875	-681.3507080078125	965.3338012695312	921.8793334960938	-760.7387084960938	936.8463745117188	892.523681640625	-769.6961059570312	1104.141723632812	873.898193359375	-657.6092529296875	771.4496459960938	935.21044921875	-729.4788208007812	863.1385498046875	892.6962280273438	-663.5603637695312	877.7457275390625	910.7147827148438	-818.3886108398438	1584.255004882812	1326.9580078125	-836.382568359375	1511.908325195312	1391.809692382812	-851.8701171875	1216.969848632812	1405.460815429688	-851.4321899414062	1216.8994140625	1309.59130859375	-699.2374877929688	977.7395629882812	1402.15869140625	-776.4799194335938	958.9962158203125	1426.693115234375	-828.2122802734375	1143.879516601562	1422.135864257812	-662.4480590820312	784.9293823242188	1390.59912109375	-666.0847778320312	871.4217529296875	1411.060424804688	-735.2360229492188	861.2383422851562	1432.4052734375	-782.2001342773438	1775.122802734375	1241.392333984375	-686.619140625	1834.109741210938	1051.592651367188	-631.1703491210938	1835.672119140625	1169.698486328125	-845.7579956054688	1778.699096679688	1122.403442382812	-765.9302978515625	1038.507690429688	984.4771728515625	-728.71435546875	1032.281494140625	1347.584838867188	-650.2039184570312	1105.0771484375	1292.014526367188	-657.5200805664062	1102.8603515625	1024.882690429688	-713.0349731445312	532.9390258789062	1005.067321777344	-742.6484985351562	680.7197265625	979.4050903320312	-877.404296875	40.13063049316406	989.3533325195312	-837.980224609375	295.0000915527344	967.9137573242188	-649.2488403320312	42.17404937744141	1053.923583984375	-731.353759765625	42.96432495117188	1085.457885742188	-750.2863159179688	39.40342712402344	969.7013549804688	-951.113037109375	44.30295181274414	1046.723876953125	-733.5482788085938	538.4996337890625	1298.517333984375	-707.2283325195312	817.2158813476562	1334.909912109375	-870.1594848632812	32.82082748413086	1277.370361328125	-764.36376953125	403.6806945800781	1308.718627929688	-637.3095703125	50.92490386962891	1234.031982421875	-695.0311279296875	38.57720947265625	1190.650024414062	-738.1279296875	43.89315414428711	1304.055297851562	-926.9005737304688	33.58879470825195	1226.417114257812	
137	1.36	-858.998046875	1128.227905273438	1230.98291015625	-859.0327758789062	1128.060424804688	1095.347290039062	-865.3658447265625	1160.79833984375	1160.461669921875	-651.7159423828125	1360.619384765625	1158.716552734375	-906.2470092773438	1311.645629882812	1158.920166015625	-873.3351440429688	1603.460083007812	1147.817504882812	-689.2179565429688	1495.3623046875	1154.828369140625	-924.8037109375	1419.404541015625	1233.825561523438	-880.2333984375	1584.226928710938	1045.304809570312	-793.0650634765625	1569.803466796875	976.8336181640625	-811.9799194335938	1438.878784179688	904.5628051757812	-790.1484375	1219.891357421875	879.9759521484375	-857.3522338867188	1205.89892578125	936.9132690429688	-680.5530395507812	965.326171875	923.0875854492188	-759.9451904296875	936.8496704101562	893.7493286132812	-768.8756103515625	1104.172241210938	875.1939697265625	-656.8677978515625	771.4290771484375	936.3094482421875	-728.7469482421875	863.1348876953125	893.8760375976562	-662.8055419921875	877.7252197265625	911.87548828125	-816.3111572265625	1584.23095703125	1328.583740234375	-834.3758544921875	1511.983520507812	1393.516723632812	-850.6505126953125	1217.116821289062	1407.60693359375	-850.6185913085938	1216.948486328125	1311.752197265625	-698.5828247070312	977.5459594726562	1403.956909179688	-775.782958984375	959.0127563476562	1428.824951171875	-827.1205444335938	1143.968383789062	1424.268310546875	-662.4092407226562	784.5910034179688	1392.453002929688	-665.6090087890625	871.0750122070312	1412.991821289062	-734.8834228515625	861.2713623046875	1434.322631835938	-780.9806518554688	1775.354125976562	1242.580200195312	-683.9571533203125	1833.352172851562	1053.139892578125	-629.3191528320312	1835.444580078125	1171.627807617188	-843.66650390625	1778.442016601562	1123.058715820312	-765.7582397460938	1037.96875	985.724609375	-728.7110595703125	1032.0830078125	1349.108276367188	-649.874755859375	1104.681518554688	1293.508544921875	-657.5463256835938	1102.3828125	1026.47900390625	-707.0414428710938	532.15380859375	1007.20166015625	-738.5020141601562	679.8856811523438	981.312744140625	-877.2409057617188	40.96961975097656	989.5740356445312	-834.6187133789062	295.3019409179688	969.1285400390625	-649.1172485351562	42.07899856567383	1053.903686523438	-731.1926879882812	42.99521636962891	1085.42041015625	-750.2822265625	39.37810134887695	969.7562866210938	-950.964599609375	45.61774444580078	1046.984130859375	-733.218505859375	538.2694091796875	1299.307373046875	-706.8246459960938	816.9791870117188	1336.083374023438	-870.2322998046875	32.65327072143555	1277.501831054688	-764.0230712890625	403.3856811523438	1309.427490234375	-637.2884521484375	50.93333053588867	1233.778442382812	-695.2565307617188	38.64664459228516	1190.4833984375	-738.1190795898438	43.88520050048828	1303.948608398438	-927.0856323242188	33.45078277587891	1226.708862304688	
138	1.37	-858.8675537109375	1128.068603515625	1232.296508789062	-859.059814453125	1127.602905273438	1096.638305664062	-865.2568969726562	1160.726318359375	1161.796630859375	-650.6287231445312	1360.011474609375	1160.102172851562	-905.352783203125	1311.81298828125	1160.4990234375	-871.3655395507812	1603.552490234375	1149.539794921875	-687.6074829101562	1494.886352539062	1156.333740234375	-923.3946533203125	1419.723876953125	1235.603637695312	-878.4485473632812	1584.43701171875	1047.022094726562	-791.3143920898438	1569.732055664062	978.4804077148438	-810.5631713867188	1438.8818359375	906.2144775390625	-789.2130737304688	1219.905517578125	881.3712158203125	-856.4631958007812	1205.9658203125	938.3015747070312	-679.765869140625	965.2831420898438	924.34716796875	-759.1607055664062	936.8079223632812	895.015380859375	-768.0619506835938	1104.165893554688	876.5147094726562	-656.1723022460938	771.3746337890625	937.505859375	-728.0237426757812	863.0811157226562	895.1192626953125	-662.0482177734375	877.6663818359375	913.105224609375	-814.119140625	1584.177368164062	1330.218505859375	-832.2357177734375	1512.031127929688	1395.232177734375	-849.2885131835938	1217.243286132812	1409.889526367188	-849.7700805664062	1216.958862304688	1314.043823242188	-697.801513671875	977.3212890625	1405.7568359375	-774.9228515625	959.0040893554688	1431.099609375	-825.8558349609375	1144.043212890625	1426.529296875	-662.2861328125	784.2203979492188	1394.293579101562	-665.0011596679688	870.6959838867188	1414.9150390625	-734.3897094726562	861.3010864257812	1436.28759765625	-779.62158203125	1775.515502929688	1243.782836914062	-681.2969970703125	1832.586669921875	1054.689331054688	-627.4177856445312	1835.21728515625	1173.527709960938	-841.5101318359375	1778.112426757812	1123.781127929688	-765.638671875	1037.343017578125	986.9653930664062	-728.7034912109375	1031.873046875	1350.590454101562	-649.530517578125	1104.2626953125	1294.95068359375	-657.6295776367188	1101.852905273438	1028.035278320312	-700.5221557617188	531.4343872070312	1009.447143554688	-733.9915161132812	679.0628662109375	983.349365234375	-877.0198974609375	42.12739181518555	989.8179931640625	-831.0099487304688	295.8104553222656	970.4254760742188	-648.9508056640625	41.95069122314453	1053.890869140625	-730.9664306640625	43.05532836914062	1085.367797851562	-750.2445068359375	39.374267578125	969.8378295898438	-950.7200317382812	47.33768463134766	1047.3203125	-732.8816528320312	538.042236328125	1300.109497070312	-706.4600830078125	816.7392578125	1337.275024414062	-870.3031616210938	32.49975967407227	1277.62744140625	-763.687744140625	403.0908508300781	1310.144287109375	-637.2845458984375	50.95822906494141	1233.552124023438	-695.4678344726562	38.72223663330078	1190.32958984375	-738.114990234375	43.87593078613281	1303.853271484375	-927.265625	33.32426834106445	1226.9833984375	
139	1.38	-858.7437133789062	1127.884643554688	1233.582153320312	-859.1558837890625	1127.112915039062	1097.913330078125	-865.2025756835938	1160.65087890625	1163.124389648438	-649.5225219726562	1359.354614257812	1161.441284179688	-904.4572143554688	1311.997436523438	1162.085205078125	-869.3038330078125	1603.651123046875	1151.25732421875	-685.9545288085938	1494.358520507812	1157.812744140625	-921.9608764648438	1420.053100585938	1237.390502929688	-876.5864868164062	1584.656127929688	1048.730834960938	-789.5069580078125	1569.6259765625	980.1242065429688	-809.1132202148438	1438.849243164062	907.8787231445312	-788.2830200195312	1219.881225585938	882.7765502929688	-855.5829467773438	1206.00830078125	939.6895141601562	-678.9981079101562	965.2057495117188	925.6538696289062	-758.3943481445312	936.7272338867188	896.3182373046875	-767.2525024414062	1104.121948242188	877.8577880859375	-655.5235595703125	771.2874755859375	938.794921875	-727.3092041015625	862.9833984375	896.4205322265625	-661.2937622070312	877.5719604492188	914.3987426757812	-811.8241577148438	1584.095581054688	1331.850463867188	-829.9807739257812	1512.048583984375	1396.939819335938	-847.7886352539062	1217.355346679688	1412.283447265625	-848.8615112304688	1216.92529296875	1316.433837890625	-696.8902587890625	977.0675659179688	1407.562744140625	-773.8944702148438	958.9736938476562	1433.506103515625	-824.4252319335938	1144.102661132812	1428.900268554688	-662.0537719726562	783.821044921875	1396.131225585938	-664.2671508789062	870.2950439453125	1416.819458007812	-733.7357788085938	861.302490234375	1438.31103515625	-778.1183471679688	1775.617431640625	1244.99609375	-678.6289672851562	1831.8212890625	1056.2373046875	-625.4563598632812	1834.984741210938	1175.396850585938	-839.2843017578125	1777.730224609375	1124.564697265625	-765.5729370117188	1036.661987304688	988.1985473632812	-728.6753540039062	1031.660278320312	1352.0234375	-649.1898803710938	1103.8251953125	1296.332153320312	-657.7554321289062	1101.289794921875	1029.544921875	-693.4873657226562	530.8443603515625	1011.793212890625	-729.096435546875	678.3069458007812	985.5087280273438	-876.7246704101562	43.65274047851562	990.0784912109375	-827.1600952148438	296.6001586914062	971.8038330078125	-648.75341796875	41.78937530517578	1053.876831054688	-730.667724609375	43.15720748901367	1085.29736328125	-750.1563110351562	39.40470886230469	969.95068359375	-950.354736328125	49.54679107666016	1047.731689453125	-732.5567016601562	537.821533203125	1300.914916992188	-706.1343383789062	816.4983520507812	1338.47314453125	-870.3713989257812	32.36235427856445	1277.744995117188	-763.3590087890625	402.8009338378906	1310.855834960938	-637.3016967773438	51.00069808959961	1233.353881835938	-695.6576538085938	38.80170440673828	1190.190795898438	-738.1153564453125	43.86703491210938	1303.770629882812	-927.435791015625	33.21337890625	1227.230102539062	
